<svg viewBox="0 0 537.45 109.27" xmlns="http://www.w3.org/2000/svg" xmlns:xlink="http://www.w3.org/1999/xlink" id="Layer_1" xml:space="preserve" overflow="hidden"><g><path d="M133.73 71.46 143.04 66.57C147.18 74.75 153.57 78.69 162.21 78.69 170.67 78.69 176.4 75.96 176.4 69.67 176.4 63.65 172.08 60.83 160.61 57.45 147.17 53.5 136.36 49.84 136.36 36.58 136.36 24.74 146.04 16.94 160.14 16.94 173.86 16.94 181.95 23.71 186.18 31.88L177.63 37.8C173.49 30.84 167.57 27.65 160.05 27.65 152.34 27.65 147.92 30.47 147.92 35.55 147.92 42.04 152.9 44.2 164.27 47.58 177.43 51.43 187.96 55.76 187.96 68.82 187.96 80.19 178.28 89.12 161.74 89.12 147.93 89.13 138.15 81.99 133.73 71.46Z" fill="#363545"/><path d="M192.86 87.81 192.86 18.26 204.42 18.26 204.42 59.71 223.31 37.9 236 37.9 219.74 56.14 237.41 87.82 225.28 87.82 212.4 64.7 204.41 73.44 204.41 87.82 192.86 87.82Z" fill="#363545"/><path d="M236.76 62.91C236.76 43.92 250.2 36.97 260.54 36.97 271.73 36.97 282.44 43.64 282.44 63.95L282.44 66.68 248.32 66.68C248.79 75.7 254.34 79.65 261.67 79.65 268.16 79.65 271.92 77.49 275.68 73.82L281.79 79.84C276.62 85.57 269.76 88.86 260.83 88.86 248.32 88.85 236.76 81.23 236.76 62.91ZM271.82 58.02C271.16 50.41 267.4 46.36 260.45 46.36 254.81 46.36 249.64 49.56 248.51 58.02L271.82 58.02Z" fill="#363545"/><path d="M294.94 74.75 294.94 47.11 286.29 47.11 286.29 37.9 294.94 37.9 294.94 20.51 306.5 20.51 306.5 37.9 319.38 37.9 319.38 47.11 306.5 47.11 306.5 71.83C306.5 77.19 308.1 79.35 313.83 79.35 315.52 79.35 317.68 79.07 318.81 78.69L318.81 87.81C317.59 88.09 313.26 88.47 310.35 88.47 297.67 88.47 294.94 83.77 294.94 74.75Z" fill="#363545"/><path d="M323.89 62.91C323.89 43.83 336.77 36.97 347.86 36.97 360.27 36.97 365.53 43.83 368.54 51.54L358.76 55.02C356.79 49.38 353.21 46.65 347.67 46.65 341.09 46.65 335.54 50.97 335.54 62.91 335.54 73.53 339.86 79.36 347.48 79.36 352.74 79.36 356.41 77.76 359.14 70.71L368.73 74.19C365.16 82.18 359.24 88.85 347.21 88.85 335.64 88.85 323.89 81.14 323.89 62.91Z" fill="#363545"/><path d="M375.68 87.81 375.68 18.26 387.34 18.26 387.34 44.67C390.54 41.29 396.55 36.96 405.57 36.96 414.31 36.96 419.95 42.13 419.95 52L419.95 87.81 408.3 87.81 408.3 54.91C408.3 49.37 405.95 46.83 400.87 46.83 395.79 46.83 391.56 49.46 387.33 53.32L387.33 87.82 375.68 87.82Z" fill="#363545"/><path d="M428.79 62.43 428.79 18.26 440.54 18.26 440.54 61.4C440.54 72.02 445.15 78.32 455.86 78.32 466.48 78.32 471.09 72.21 471.09 61.49L471.09 18.26 482.65 18.26 482.65 62.34C482.65 78.13 473.72 88.94 455.77 88.94 436.59 88.94 428.79 78.23 428.79 62.43Z" fill="#363545"/><path d="M490.26 106.61 490.26 37.9 501.82 37.9 501.82 44.48C505.11 40.53 510.28 36.96 517.71 36.96 529.08 36.96 537.45 45.51 537.45 62.81 537.45 80.11 528.9 88.56 516.11 88.56 510.75 88.56 505.49 86.4 501.82 82.26L501.82 106.6 490.26 106.6ZM525.89 62.91C525.89 52.38 521.38 46.84 513.95 46.84 509.16 46.84 504.55 49.85 501.82 53.14L501.82 73.16C504.92 77.2 509.43 79.36 513.57 79.36 522.32 79.35 525.89 74 525.89 62.91Z" fill="#363545"/></g><g><path d="M100.1 24.02 64.69 3.61C64.69 3.61 59.08 0.33 50.13 0.33 40.81 0.33 35.41 3.71 35.41 3.71L2.61 22.48 52.51 51.16 52.51 109.12 85.35 90.37C85.35 90.37 91.22 87.13 95.68 79.43 99.61 72.65 100.1 66.09 100.1 66.09L100.1 24.02 100.1 24.02ZM46.7 33.46C46.7 33.46 54.02 32.11 60.21 35.68 66.4 39.25 70.05 41.35 70.05 41.35 70.05 41.35 70.06 46.32 70.06 53.75 70.06 59.7 65.02 65.87 65.02 65.87L65.03 44.04 46.7 33.46ZM75.72 81.34 65.03 87.47 65.03 81.72 73.35 76.96C81.27 71.25 82.58 62.83 82.58 59.91L82.55 34.05 59.86 20.99C59.86 20.99 56.41 18.73 50.21 18.73 44.01 18.73 40.63 20.82 40.63 20.82L32.66 25.4 27.63 22.49 38.64 16.2C38.64 16.2 42.95 13.81 50.17 13.81 56.8 13.81 61.96 16.4 61.96 16.4L87.58 31.2 87.55 59.42C87.73 63.76 85.71 74.36 75.72 81.34Z" fill="#005F9E"/><path d="M0.09 41.25 35.07 61.32 35.04 67.3 15.14 55.89 2.62 63.01 35.02 81.68 35.04 87.44 0.33 67.47C0.42 69.81 2.54 77.02 6.6 82.6 10.72 88.25 15.42 90.65 15.42 90.65L47.5 109.12 47.5 54.04 0.12 26.83 0.09 41.25Z" fill="#005F9E"/></g></svg>